<?xml version="1.0" standalone="no"?>
<!DOCTYPE svg PUBLIC "-//W3C//DTD SVG 20010904//EN"
 "http://www.w3.org/TR/2001/REC-SVG-20010904/DTD/svg10.dtd">
<svg version="1.0" xmlns="http://www.w3.org/2000/svg"
 width="1278.000000pt" height="1278.000000pt" viewBox="0 0 1278.000000 1278.000000"
 preserveAspectRatio="xMidYMid meet">
<metadata>
Created by potrace 1.14, written by Peter Selinger 2001-2017
</metadata>
<g transform="translate(0.000000,1278.000000) scale(0.100000,-0.100000)"
fill="#000000" stroke="none">
<path d="M6138 12775 c-2 -1 -57 -5 -123 -9 -179 -9 -264 -16 -415 -37 -93
-12 -338 -50 -365 -55 -11 -3 -42 -9 -70 -14 -780 -144 -1579 -469 -2280 -928
-363 -238 -684 -499 -1000 -816 -230 -231 -263 -265 -405 -436 -671 -805
-1136 -1764 -1345 -2775 -9 -44 -19 -89 -21 -100 -3 -11 -7 -31 -9 -45 -2 -14
-6 -36 -9 -50 -10 -54 -44 -282 -50 -345 -3 -27 -8 -68 -11 -90 -42 -310 -42
-1062 0 -1380 3 -22 7 -65 11 -95 3 -30 17 -125 30 -210 14 -85 28 -168 30
-185 3 -16 14 -73 25 -125 231 -1101 741 -2113 1492 -2955 93 -104 424 -435
506 -505 35 -30 71 -62 80 -71 9 -9 70 -60 136 -113 138 -112 132 -107 210
-165 33 -25 76 -56 95 -71 297 -226 809 -515 1235 -698 423 -182 967 -345
1355 -407 19 -3 42 -8 50 -10 8 -2 38 -7 65 -11 28 -3 88 -12 134 -20 46 -7
87 -12 90 -12 3 1 26 -1 51 -5 213 -31 432 -39 866 -34 231 3 435 7 454 10 19
3 62 8 95 12 116 12 151 16 285 36 181 27 171 26 317 55 251 49 544 127 748
198 215 75 247 86 401 149 539 219 1083 533 1514 873 40 32 256 209 266 218 7
6 47 42 90 81 153 136 450 439 554 564 25 30 52 62 60 71 129 141 390 500 545
750 12 19 30 49 41 65 10 17 24 39 30 50 6 11 38 69 72 128 182 319 360 722
487 1102 46 137 116 375 129 440 3 11 18 76 34 145 17 69 35 152 41 185 6 33
13 71 16 85 23 115 58 357 71 490 4 36 8 79 10 95 26 266 26 1007 0 1165 -2
14 -7 59 -11 100 -10 121 -53 411 -86 574 -243 1212 -824 2312 -1694 3205
-373 383 -765 697 -1210 971 -81 49 -149 90 -152 90 -3 0 -17 8 -31 19 -114
80 -560 294 -845 406 -526 206 -1069 343 -1592 400 -27 3 -66 8 -85 10 -19 3
-71 7 -115 10 -44 3 -96 8 -115 11 -37 6 -676 14 -682 9z"/>
</g>
</svg>
